<?xml version="1.0" standalone="no"?>
<!DOCTYPE svg PUBLIC "-//W3C//DTD SVG 20010904//EN"
 "http://www.w3.org/TR/2001/REC-SVG-20010904/DTD/svg10.dtd">
<svg version="1.0" xmlns="http://www.w3.org/2000/svg"
 width="576.000000pt" height="576.000000pt" viewBox="0 0 576.000000 576.000000"
 preserveAspectRatio="xMidYMid meet">
<metadata>
Created by potrace 1.11, written by Peter Selinger 2001-2013
</metadata>
<g transform="translate(0.000000,576.000000) scale(0.100000,-0.100000)"
fill="#000000" stroke="none">
<path d="M1788 5349 c-30 -6 -60 -12 -138 -24 -14 -2 -61 -13 -105 -25 -44
-12 -84 -23 -90 -25 -10 -2 -26 -8 -80 -28 -16 -7 -32 -12 -35 -13 -36 -11
-50 -18 -50 -26 0 -5 -6 -8 -12 -6 -7 3 -34 -8 -61 -24 -26 -15 -50 -28 -53
-28 -11 0 -153 -97 -204 -140 -70 -58 -116 -107 -188 -198 -53 -68 -59 -72
-87 -67 -16 3 -40 7 -52 8 -13 1 -23 4 -23 8 0 3 -18 6 -40 7 -23 2 -53 7 -67
13 -25 9 -309 16 -318 7 -2 -2 12 -31 31 -63 34 -56 118 -214 119 -225 1 -3
11 -26 23 -52 12 -26 22 -50 22 -53 0 -4 6 -21 14 -38 26 -59 29 -68 40 -117
5 -19 13 -41 18 -47 6 -7 8 -13 6 -13 -3 0 2 -33 11 -72 l17 -73 -31 -45 c-41
-62 -53 -81 -67 -110 -7 -14 -22 -41 -34 -60 -11 -19 -22 -38 -22 -43 -1 -4
-9 -21 -17 -37 -9 -17 -13 -30 -10 -30 3 0 -2 -11 -11 -25 -9 -14 -13 -25 -9
-25 4 0 2 -7 -5 -15 -7 -8 -10 -15 -7 -15 3 0 0 -15 -8 -34 -8 -18 -11 -36 -8
-40 4 -3 2 -6 -3 -6 -13 0 -9 -81 5 -107 5 -11 8 -23 5 -26 -3 -3 -2 -12 2
-19 9 -14 11 -19 19 -64 5 -26 -2 -41 -42 -95 -26 -35 -50 -66 -53 -69 -15
-13 -80 -111 -80 -120 0 -6 -4 -10 -8 -10 -5 0 -14 -10 -21 -22 -6 -13 -20
-36 -31 -53 -11 -16 -25 -41 -31 -55 -15 -33 -14 -189 1 -270 7 -36 14 -72 15
-80 1 -8 5 -22 8 -30 3 -8 13 -42 23 -75 9 -33 21 -67 25 -75 20 -39 49 -111
49 -120 0 -5 4 -10 8 -10 5 0 17 -18 27 -40 10 -21 25 -47 34 -57 9 -10 29
-36 46 -58 27 -37 77 -88 121 -126 11 -9 37 -41 59 -72 22 -31 41 -54 43 -52
2 2 19 -14 38 -35 19 -21 70 -57 114 -80 l80 -41 -22 -42 c-12 -23 -23 -49
-24 -57 -9 -46 -9 -134 -2 -200 12 -119 14 -127 38 -185 12 -30 23 -76 26
-110 7 -101 85 -276 167 -375 53 -65 167 -177 167 -165 0 3 10 -4 23 -15 27
-23 137 -82 137 -73 0 3 6 1 13 -4 13 -12 88 -38 98 -35 4 0 22 -3 40 -9 19
-5 90 -10 159 -10 111 0 167 6 250 25 14 3 40 9 58 12 18 3 35 10 38 15 3 5
12 9 20 9 13 0 55 19 142 65 18 9 59 19 90 21 69 4 119 12 152 24 14 5 39 11
55 14 47 7 174 51 245 84 19 9 37 17 40 17 36 8 90 30 90 38 0 6 3 8 6 4 3 -3
31 5 60 18 30 13 70 27 89 31 20 3 38 10 41 15 3 5 16 9 29 9 13 0 26 4 30 9
3 6 14 8 25 6 11 -2 20 0 20 4 0 9 41 18 110 25 19 2 35 5 35 6 0 6 93 11 185
11 128 -1 131 -1 150 -8 8 -3 29 -7 45 -8 17 -2 48 -8 70 -14 22 -7 47 -13 55
-15 8 -2 35 -11 60 -20 25 -9 49 -18 54 -19 22 -5 196 -96 235 -123 24 -16 51
-33 59 -39 8 -5 47 -40 86 -77 39 -36 73 -65 76 -63 12 7 -2 213 -20 305 -6
30 -12 66 -14 80 -12 105 -106 333 -185 450 -49 72 -54 88 -33 94 23 6 91 18
122 22 14 2 52 8 85 14 33 6 83 13 110 15 43 4 75 9 95 15 26 8 465 -1 465
-10 0 -1 20 -3 45 -5 25 -3 68 -9 95 -15 28 -6 63 -13 80 -15 16 -3 39 -8 50
-12 11 -4 22 -7 25 -8 7 -1 83 -26 100 -32 8 -3 20 -7 26 -8 23 -5 190 -88
207 -103 9 -8 17 -12 17 -8 0 4 18 -6 39 -23 21 -17 42 -31 45 -31 7 0 14 -6
101 -86 44 -39 61 -50 65 -39 6 18 3 295 -4 350 -2 22 -8 67 -11 100 -4 33
-11 68 -16 77 -5 9 -9 30 -9 46 0 16 -3 32 -7 36 -4 4 -8 17 -8 29 -1 12 -4
29 -7 37 -5 13 -15 48 -23 85 -14 59 -32 119 -51 170 -4 11 -8 25 -9 30 0 6
-4 17 -7 25 -4 8 -16 44 -28 80 -12 36 -24 72 -27 80 -4 8 -7 17 -8 20 -1 3
-7 17 -13 33 -19 43 -30 71 -31 80 0 4 -8 21 -17 38 -17 35 -6 61 18 42 7 -6
36 -14 63 -18 58 -10 55 -9 119 -29 27 -8 53 -13 57 -11 4 3 2 22 -3 42 -5 21
-12 53 -15 71 -3 17 -9 32 -13 32 -5 0 -7 8 -6 17 2 9 -4 29 -11 44 -8 15 -16
36 -18 46 -2 10 -10 36 -18 58 -14 38 -24 62 -84 192 -13 29 -24 56 -24 60 0
5 -6 15 -12 23 -7 8 -18 26 -25 39 -60 106 -95 165 -102 171 -10 9 -50 69 -50
75 0 10 -36 59 -137 185 -67 85 -114 138 -185 211 -58 58 -51 67 44 63 32 -1
58 0 58 2 0 8 -62 129 -69 134 -3 3 -7 11 -9 18 -3 17 -114 186 -133 202 -3 3
-12 14 -20 26 -56 82 -389 424 -412 424 -3 0 -21 15 -41 33 -19 17 -41 37 -48
42 -78 60 -104 81 -106 87 -2 5 -10 8 -17 8 -7 0 -15 3 -17 8 -4 10 -119 90
-198 138 -36 21 -67 41 -70 44 -20 20 -359 176 -399 184 -9 1 -33 10 -55 19
-21 9 -44 17 -51 17 -6 0 -15 3 -19 7 -3 4 -14 8 -24 9 -9 1 -42 10 -72 18
-30 9 -66 19 -80 21 -14 3 -45 9 -70 15 -25 6 -58 13 -75 15 -16 3 -41 8 -55
12 -14 3 -38 7 -55 9 -16 1 -64 8 -105 14 -41 6 -100 14 -130 16 -82 8 -633
13 -645 6 -5 -3 -30 -7 -55 -8 -25 -1 -76 -8 -115 -14 -108 -18 -115 -19 -121
-9 -3 5 8 37 25 71 16 35 28 64 26 67 -7 7 -92 7 -127 0z"/>
</g>
</svg>
